<svg width="74" height="74" viewBox="0 0 74 74" fill="none" xmlns="http://www.w3.org/2000/svg">
<mask id="path-1-inside-1_60_441" fill="white">
<path fill-rule="evenodd" clip-rule="evenodd" d="M37 73.5385C57.1796 73.5385 73.5385 57.1796 73.5385 37C73.5385 16.8204 57.1796 0.461548 37 0.461548C16.8204 0.461548 0.461548 16.8204 0.461548 37C0.461548 57.1796 16.8204 73.5385 37 73.5385ZM63.8899 33.2084C60.4829 37.1925 55.6838 39.6737 50.367 39.6737C40.031 39.6737 31.6521 30.2973 31.6521 18.7309C31.6521 15.821 32.1825 13.0496 33.1409 10.5314C20.1891 12.4985 10.2643 23.6815 10.2643 37.1826C10.2643 41.1219 11.1092 44.8638 12.6277 48.237C14.168 46.8039 16.3329 45.9122 18.7305 45.9122C23.4063 45.9122 27.1967 49.3036 27.1967 53.4872C27.1967 56.2965 25.4876 58.7485 22.949 60.0564C27.0883 62.6448 31.9807 64.1409 37.2225 64.1409C52.1112 64.1409 64.1808 52.0713 64.1808 37.1826C64.1808 35.8324 64.0815 34.5054 63.8899 33.2084Z"/>
</mask>
<path fill-rule="evenodd" clip-rule="evenodd" d="M37 73.5385C57.1796 73.5385 73.5385 57.1796 73.5385 37C73.5385 16.8204 57.1796 0.461548 37 0.461548C16.8204 0.461548 0.461548 16.8204 0.461548 37C0.461548 57.1796 16.8204 73.5385 37 73.5385ZM63.8899 33.2084C60.4829 37.1925 55.6838 39.6737 50.367 39.6737C40.031 39.6737 31.6521 30.2973 31.6521 18.7309C31.6521 15.821 32.1825 13.0496 33.1409 10.5314C20.1891 12.4985 10.2643 23.6815 10.2643 37.1826C10.2643 41.1219 11.1092 44.8638 12.6277 48.237C14.168 46.8039 16.3329 45.9122 18.7305 45.9122C23.4063 45.9122 27.1967 49.3036 27.1967 53.4872C27.1967 56.2965 25.4876 58.7485 22.949 60.0564C27.0883 62.6448 31.9807 64.1409 37.2225 64.1409C52.1112 64.1409 64.1808 52.0713 64.1808 37.1826C64.1808 35.8324 64.0815 34.5054 63.8899 33.2084Z" fill="#96EA63"/>
<path d="M63.8899 33.2084L66.5347 32.8176L65.6761 27.0061L61.858 31.4708L63.8899 33.2084ZM33.1409 10.5314L35.6396 11.4824L37.2694 7.20013L32.7394 7.88814L33.1409 10.5314ZM12.6277 48.237L10.1897 49.3344L11.7197 52.7333L14.4487 50.1944L12.6277 48.237ZM22.949 60.0564L21.7246 57.6797L17.5474 59.8318L21.5315 62.3232L22.949 60.0564ZM70.8649 37C70.8649 55.7031 55.7031 70.8649 37 70.8649V76.212C58.6562 76.212 76.212 58.6562 76.212 37H70.8649ZM37 3.13509C55.7031 3.13509 70.8649 18.2969 70.8649 37H76.212C76.212 15.3438 58.6562 -2.212 37 -2.212V3.13509ZM3.13509 37C3.13509 18.2969 18.2969 3.13509 37 3.13509V-2.212C15.3438 -2.212 -2.212 15.3438 -2.212 37H3.13509ZM37 70.8649C18.2969 70.8649 3.13509 55.7031 3.13509 37H-2.212C-2.212 58.6562 15.3438 76.212 37 76.212V70.8649ZM50.367 42.3472C56.5518 42.3472 62.0658 39.4551 65.9218 34.946L61.858 31.4708C58.8999 34.9299 54.8159 37.0001 50.367 37.0001V42.3472ZM28.9786 18.7309C28.9786 31.4831 38.2796 42.3472 50.367 42.3472V37.0001C41.7824 37.0001 34.3257 29.1114 34.3257 18.7309H28.9786ZM30.6422 9.58039C29.5684 12.4018 28.9786 15.4953 28.9786 18.7309H34.3257C34.3257 16.1466 34.7965 13.6975 35.6396 11.4824L30.6422 9.58039ZM12.9378 37.1826C12.9378 25.0229 21.8774 14.9463 33.5424 13.1746L32.7394 7.88814C18.5008 10.0507 7.59074 22.3401 7.59074 37.1826H12.9378ZM15.0656 47.1395C13.6994 44.1046 12.9378 40.7361 12.9378 37.1826H7.59074C7.59074 41.5076 8.51901 45.623 10.1897 49.3344L15.0656 47.1395ZM18.7305 43.2386C15.6711 43.2386 12.8518 44.3768 10.8066 46.2796L14.4487 50.1944C15.4842 49.2311 16.9946 48.5857 18.7305 48.5857V43.2386ZM29.8703 53.4872C29.8703 47.5552 24.5954 43.2386 18.7305 43.2386V48.5857C22.2171 48.5857 24.5232 51.0521 24.5232 53.4872H29.8703ZM24.1735 62.4331C27.4642 60.7377 29.8703 57.4436 29.8703 53.4872H24.5232C24.5232 55.1494 23.5111 56.7593 21.7246 57.6797L24.1735 62.4331ZM37.2225 61.4674C32.4964 61.4674 28.0932 60.12 24.3665 57.7896L21.5315 62.3232C26.0834 65.1697 31.465 66.8144 37.2225 66.8144V61.4674ZM61.5073 37.1826C61.5073 50.5947 50.6346 61.4674 37.2225 61.4674V66.8144C53.5877 66.8144 66.8543 53.5478 66.8543 37.1826H61.5073ZM61.2451 33.5992C61.4176 34.7672 61.5073 35.9636 61.5073 37.1826H66.8543C66.8543 35.7012 66.7454 34.2435 66.5347 32.8176L61.2451 33.5992Z" fill="#96EA63" mask="url(#path-1-inside-1_60_441)"/>
</svg>
